<svg width="33" height="32" viewBox="0 0 33 32" fill="none" xmlns="http://www.w3.org/2000/svg">
<path d="M25.1 19H7.9C6.99867 18.9987 6.13463 18.64 5.4973 18.0027C4.85996 17.3654 4.50132 16.5013 4.5 15.6V7C4.5 6.73478 4.60536 6.48043 4.79289 6.29289C4.98043 6.10536 5.23478 6 5.5 6H27.5C27.7652 6 28.0196 6.10536 28.2071 6.29289C28.3946 6.48043 28.5 6.73478 28.5 7V15.6C28.4987 16.5013 28.14 17.3654 27.5027 18.0027C26.8654 18.64 26.0013 18.9987 25.1 19ZM6.5 8V15.6C6.5 15.9713 6.6475 16.3274 6.91005 16.5899C7.1726 16.8525 7.5287 17 7.9 17H25.1C25.4713 17 25.8274 16.8525 26.0899 16.5899C26.3525 16.3274 26.5 15.9713 26.5 15.6V8H6.5Z" fill="#383838"/>
<path d="M9.5 15C9.5 15.2652 9.60536 15.5196 9.79289 15.7071C9.98043 15.8946 10.2348 16 10.5 16H22.5C22.7652 16 23.0196 15.8946 23.2071 15.7071C23.3946 15.5196 23.5 15.2652 23.5 15C23.5 14.7348 23.3946 14.4804 23.2071 14.2929C23.0196 14.1054 22.7652 14 22.5 14H10.5C10.2348 14 9.98043 14.1054 9.79289 14.2929C9.60536 14.4804 9.5 14.7348 9.5 15ZM10.5 10C10.5 9.73478 10.3946 9.48043 10.2071 9.29289C10.0196 9.10536 9.76522 9 9.5 9H8.5C8.23478 9 7.98043 9.10536 7.79289 9.29289C7.60536 9.48043 7.5 9.73478 7.5 10C7.5 10.2652 7.60536 10.5196 7.79289 10.7071C7.98043 10.8946 8.23478 11 8.5 11H9.5C9.76522 11 10.0196 10.8946 10.2071 10.7071C10.3946 10.5196 10.5 10.2652 10.5 10ZM12.5 11H13.5C13.7652 11 14.0196 10.8946 14.2071 10.7071C14.3946 10.5196 14.5 10.2652 14.5 10C14.5 9.73478 14.3946 9.48043 14.2071 9.29289C14.0196 9.10536 13.7652 9 13.5 9H12.5C12.2348 9 11.9804 9.10536 11.7929 9.29289C11.6054 9.48043 11.5 9.73478 11.5 10C11.5 10.2652 11.6054 10.5196 11.7929 10.7071C11.9804 10.8946 12.2348 11 12.5 11ZM11.027 22.183L11.395 21.448C11.4538 21.3305 11.4888 21.2026 11.4982 21.0716C11.5075 20.9406 11.4909 20.809 11.4494 20.6844C11.4079 20.5598 11.3423 20.4446 11.2562 20.3453C11.1702 20.2461 11.0655 20.1648 10.948 20.106C10.8305 20.0472 10.7026 20.0122 10.5716 20.0028C10.4406 19.9935 10.309 20.0101 10.1844 20.0516C10.0598 20.0931 9.94459 20.1587 9.84534 20.2448C9.74609 20.3308 9.66477 20.4355 9.606 20.553L9.238 21.288C8.95972 21.844 8.86357 22.4735 8.96319 23.0872C9.06281 23.7009 9.35314 24.2676 9.793 24.707C9.93607 24.8495 10.0306 25.0334 10.0631 25.2327C10.0956 25.432 10.0644 25.6365 9.974 25.817L9.606 26.552C9.48732 26.7892 9.46773 27.0639 9.55156 27.3156C9.63539 27.5673 9.81576 27.7753 10.053 27.894C10.2902 28.0127 10.5649 28.0323 10.8166 27.9484C11.0683 27.8646 11.2763 27.6842 11.395 27.447L11.763 26.712C12.0413 26.156 12.1374 25.5265 12.0378 24.9128C11.9382 24.2991 11.6479 23.7324 11.208 23.293C11.0649 23.1505 10.9704 22.9666 10.9379 22.7673C10.9054 22.568 10.9366 22.3635 11.027 22.183ZM15.027 22.183L15.395 21.448C15.4538 21.3305 15.4888 21.2026 15.4982 21.0716C15.5075 20.9406 15.4909 20.809 15.4494 20.6844C15.4079 20.5598 15.3423 20.4446 15.2562 20.3453C15.1702 20.2461 15.0655 20.1648 14.948 20.106C14.8305 20.0472 14.7026 20.0122 14.5716 20.0028C14.4406 19.9935 14.309 20.0101 14.1844 20.0516C14.0598 20.0931 13.9446 20.1587 13.8453 20.2448C13.7461 20.3308 13.6648 20.4355 13.606 20.553L13.238 21.288C12.9597 21.844 12.8636 22.4735 12.9632 23.0872C13.0628 23.7009 13.3531 24.2676 13.793 24.707C13.9361 24.8495 14.0306 25.0334 14.0631 25.2327C14.0956 25.432 14.0644 25.6365 13.974 25.817L13.606 26.552C13.4873 26.7892 13.4677 27.0639 13.5516 27.3156C13.6354 27.5673 13.8158 27.7753 14.053 27.894C14.1705 27.9528 14.2984 27.9878 14.4294 27.9972C14.5604 28.0065 14.692 27.9899 14.8166 27.9484C15.0683 27.8646 15.2763 27.6842 15.395 27.447L15.763 26.712C16.0413 26.156 16.1374 25.5265 16.0378 24.9128C15.9382 24.2991 15.6479 23.7324 15.208 23.293C15.0649 23.1505 14.9704 22.9666 14.9379 22.7673C14.9054 22.568 14.9366 22.3635 15.027 22.183ZM19.027 22.183L19.395 21.448C19.5137 21.2108 19.5333 20.9361 19.4494 20.6844C19.3656 20.4327 19.1852 20.2247 18.948 20.106C18.7108 19.9873 18.4361 19.9677 18.1844 20.0516C17.9327 20.1354 17.7247 20.3158 17.606 20.553L17.238 21.288C16.9597 21.844 16.8636 22.4735 16.9632 23.0872C17.0628 23.7009 17.3531 24.2676 17.793 24.707C17.9361 24.8495 18.0306 25.0334 18.0631 25.2327C18.0956 25.432 18.0644 25.6365 17.974 25.817L17.606 26.552C17.5472 26.6695 17.5122 26.7974 17.5028 26.9284C17.4935 27.0594 17.5101 27.191 17.5516 27.3156C17.5931 27.4402 17.6587 27.5554 17.7448 27.6547C17.8308 27.7539 17.9355 27.8352 18.053 27.894C18.2902 28.0127 18.5649 28.0323 18.8166 27.9484C18.9412 27.9069 19.0564 27.8413 19.1557 27.7552C19.2549 27.6692 19.3362 27.5645 19.395 27.447L19.763 26.712C20.0413 26.156 20.1374 25.5265 20.0378 24.9128C19.9382 24.2991 19.6479 23.7324 19.208 23.293C19.0649 23.1505 18.9704 22.9666 18.9379 22.7673C18.9054 22.568 18.9366 22.3635 19.027 22.183ZM23.208 23.293C23.0649 23.1505 22.9704 22.9666 22.9379 22.7673C22.9054 22.568 22.9366 22.3635 23.027 22.183L23.395 21.448C23.4538 21.3305 23.4888 21.2026 23.4982 21.0716C23.5075 20.9406 23.4909 20.809 23.4494 20.6844C23.4079 20.5598 23.3423 20.4446 23.2562 20.3453C23.1702 20.2461 23.0655 20.1648 22.948 20.106C22.8305 20.0472 22.7026 20.0122 22.5716 20.0028C22.4406 19.9935 22.309 20.0101 22.1844 20.0516C22.0598 20.0931 21.9446 20.1587 21.8453 20.2448C21.7461 20.3308 21.6648 20.4355 21.606 20.553L21.238 21.288C20.9597 21.844 20.8636 22.4735 20.9632 23.0872C21.0628 23.7009 21.3531 24.2676 21.793 24.707C21.9361 24.8495 22.0306 25.0334 22.0631 25.2327C22.0956 25.432 22.0644 25.6365 21.974 25.817L21.606 26.552C21.4873 26.7892 21.4677 27.0639 21.5516 27.3156C21.6354 27.5673 21.8158 27.7753 22.053 27.894C22.2902 28.0127 22.5649 28.0323 22.8166 27.9484C23.0682 27.8646 23.2763 27.6842 23.395 27.447L23.763 26.712C24.0413 26.156 24.1374 25.5265 24.0378 24.9128C23.9382 24.2991 23.6479 23.7324 23.208 23.293Z" fill="#F46B5B"/>
</svg>
