<svg width="33" height="32" viewBox="0 0 33 32" fill="none" xmlns="http://www.w3.org/2000/svg">
<path d="M26.132 5H6.868C6.24021 5.00079 5.63836 5.25053 5.19445 5.69445C4.75053 6.13836 4.50079 6.74021 4.5 7.368V20C4.5 20.2652 4.60536 20.5196 4.79289 20.7071C4.98043 20.8946 5.23478 21 5.5 21H27.5C27.7652 21 28.0196 20.8946 28.2071 20.7071C28.3946 20.5196 28.5 20.2652 28.5 20V7.368C28.4992 6.74021 28.2495 6.13836 27.8056 5.69445C27.3616 5.25053 26.7598 5.00079 26.132 5ZM26.5 19H6.5V7.368C6.5 7.31967 6.50952 7.27182 6.52801 7.22717C6.54651 7.18252 6.57361 7.14196 6.60778 7.10778C6.64196 7.07361 6.68252 7.04651 6.72717 7.02801C6.77182 7.00952 6.81967 7 6.868 7H26.132C26.1803 7 26.2282 7.00952 26.2728 7.02801C26.3175 7.04651 26.358 7.07361 26.3922 7.10778C26.4264 7.14196 26.4535 7.18252 26.472 7.22717C26.4905 7.27182 26.5 7.31967 26.5 7.368V19ZM27.5 22H5.5C5.23478 22 4.98043 22.1054 4.79289 22.2929C4.60536 22.4804 4.5 22.7348 4.5 23V23.888C4.50079 24.7129 4.82878 25.5039 5.41201 26.0873C5.99523 26.6707 6.78606 26.9989 7.611 27H25.389C26.2139 26.9989 27.0048 26.6707 27.588 26.0873C28.1712 25.5039 28.4992 24.7129 28.5 23.888V23C28.5 22.7348 28.3946 22.4804 28.2071 22.2929C28.0196 22.1054 27.7652 22 27.5 22ZM25.389 25H7.611C7.3357 24.9997 7.07031 24.8972 6.86619 24.7125C6.66207 24.5278 6.53373 24.2739 6.506 24H26.494C26.4663 24.2739 26.3379 24.5278 26.1338 24.7125C25.9297 24.8972 25.6643 24.9997 25.389 25Z" fill="#383838"/>
<path d="M18.914 13H19.5C19.7652 13 20.0196 12.8946 20.2071 12.7071C20.3946 12.5196 20.5 12.2652 20.5 12C20.5 11.7348 20.3946 11.4804 20.2071 11.2929C20.0196 11.1054 19.7652 11 19.5 11H16.5C16.2348 11 15.9804 11.1054 15.7929 11.2929C15.6054 11.4804 15.5 11.7348 15.5 12V15C15.5 15.2652 15.6054 15.5196 15.7929 15.7071C15.9804 15.8946 16.2348 16 16.5 16C16.7652 16 17.0196 15.8946 17.2071 15.7071C17.3946 15.5196 17.5 15.2652 17.5 15V14.414L18.793 15.707C18.9816 15.8892 19.2342 15.99 19.4964 15.9877C19.7586 15.9854 20.0094 15.8802 20.1948 15.6948C20.3802 15.5094 20.4854 15.2586 20.4877 14.9964C20.49 14.7342 20.3892 14.4816 20.207 14.293L18.914 13Z" fill="#F46B5B"/>
</svg>
