<svg width="33" height="32" viewBox="0 0 33 32" fill="none" xmlns="http://www.w3.org/2000/svg">
<path d="M24.818 26H24.182C22.533 26 18.5 24.709 18.5 22.318V20H14.5V22.318C14.5 24.709 10.467 26 8.818 26H8.182C7.2058 25.9989 6.26988 25.6107 5.5796 24.9204C4.88932 24.2301 4.50106 23.2942 4.5 22.318V13C4.5 11.9391 4.92143 10.9217 5.67157 10.1716C6.42172 9.42143 7.43913 9 8.5 9H24.5C25.5609 9 26.5783 9.42143 27.3284 10.1716C28.0786 10.9217 28.5 11.9391 28.5 13V22.318C28.4989 23.2942 28.1107 24.2301 27.4204 24.9204C26.7301 25.6107 25.7942 25.9989 24.818 26ZM13.5 18H19.5C19.7652 18 20.0196 18.1054 20.2071 18.2929C20.3946 18.4804 20.5 18.7348 20.5 19V22.318C20.5 22.806 22.718 24 24.182 24H24.818C25.2639 23.9995 25.6914 23.8221 26.0068 23.5068C26.3221 23.1914 26.4995 22.7639 26.5 22.318V13C26.5 12.4696 26.2893 11.9609 25.9142 11.5858C25.5391 11.2107 25.0304 11 24.5 11H8.5C7.96957 11 7.46086 11.2107 7.08579 11.5858C6.71071 11.9609 6.5 12.4696 6.5 13V22.318C6.50053 22.7639 6.67791 23.1914 6.99323 23.5068C7.30855 23.8221 7.73607 23.9995 8.182 24H8.818C10.282 24 12.5 22.806 12.5 22.318V19C12.5 18.7348 12.6054 18.4804 12.7929 18.2929C12.9804 18.1054 13.2348 18 13.5 18Z" fill="#383838"/>
<path d="M21.5 12C21.2348 12 20.9804 12.1054 20.7929 12.2929C20.6054 12.4804 20.5 12.7348 20.5 13V16C20.5 16.2652 20.6054 16.5196 20.7929 16.7071C20.9804 16.8946 21.2348 17 21.5 17C21.7652 17 22.0196 16.8946 22.2071 16.7071C22.3946 16.5196 22.5 16.2652 22.5 16V13C22.5 12.7348 22.3946 12.4804 22.2071 12.2929C22.0196 12.1054 21.7652 12 21.5 12ZM24.5 13C24.2348 13 23.9804 13.1054 23.7929 13.2929C23.6054 13.4804 23.5 13.7348 23.5 14V17C23.5 17.2652 23.6054 17.5196 23.7929 17.7071C23.9804 17.8946 24.2348 18 24.5 18C24.7652 18 25.0196 17.8946 25.2071 17.7071C25.3946 17.5196 25.5 17.2652 25.5 17V14C25.5 13.7348 25.3946 13.4804 25.2071 13.2929C25.0196 13.1054 24.7652 13 24.5 13ZM12.5 14H11.5V13C11.5 12.7348 11.3946 12.4804 11.2071 12.2929C11.0196 12.1054 10.7652 12 10.5 12C10.2348 12 9.98043 12.1054 9.79289 12.2929C9.60536 12.4804 9.5 12.7348 9.5 13V14H8.5C8.23478 14 7.98043 14.1054 7.79289 14.2929C7.60536 14.4804 7.5 14.7348 7.5 15C7.5 15.2652 7.60536 15.5196 7.79289 15.7071C7.98043 15.8946 8.23478 16 8.5 16H9.5V17C9.5 17.2652 9.60536 17.5196 9.79289 17.7071C9.98043 17.8946 10.2348 18 10.5 18C10.7652 18 11.0196 17.8946 11.2071 17.7071C11.3946 17.5196 11.5 17.2652 11.5 17V16H12.5C12.7652 16 13.0196 15.8946 13.2071 15.7071C13.3946 15.5196 13.5 15.2652 13.5 15C13.5 14.7348 13.3946 14.4804 13.2071 14.2929C13.0196 14.1054 12.7652 14 12.5 14Z" fill="#F46B5B"/>
</svg>
