<svg width="33" height="32" viewBox="0 0 33 32" fill="none" xmlns="http://www.w3.org/2000/svg">
<path d="M19.5 7H17.5C17.2348 7 16.9804 7.10536 16.7929 7.29289C16.6054 7.48043 16.5 7.73478 16.5 8C16.5 8.26522 16.6054 8.51957 16.7929 8.70711C16.9804 8.89464 17.2348 9 17.5 9H19.5C19.7652 9 20.0196 8.89464 20.2071 8.70711C20.3946 8.51957 20.5 8.26522 20.5 8C20.5 7.73478 20.3946 7.48043 20.2071 7.29289C20.0196 7.10536 19.7652 7 19.5 7ZM17.42 23.62C17.398 23.5563 17.3678 23.4958 17.33 23.44L17.21 23.29C17.1143 23.1997 17.0023 23.1284 16.88 23.08C16.6365 22.98 16.3635 22.98 16.12 23.08C15.9988 23.1307 15.8872 23.2017 15.79 23.29C15.6073 23.4816 15.5037 23.7352 15.5 24C15.5016 24.0671 15.5083 24.1339 15.52 24.2C15.5309 24.2627 15.5511 24.3233 15.58 24.38C15.5998 24.4415 15.6303 24.499 15.67 24.55C15.71 24.61 15.75 24.66 15.79 24.71C15.8873 24.7981 15.9989 24.8692 16.12 24.92C16.2397 24.9728 16.3692 25 16.5 25C16.6309 25 16.7603 24.9728 16.88 24.92C17.0011 24.8691 17.1126 24.7981 17.21 24.71C17.25 24.66 17.29 24.61 17.33 24.55C17.3697 24.499 17.4002 24.4415 17.42 24.38C17.4487 24.3232 17.4689 24.2626 17.48 24.2C17.4915 24.1339 17.4982 24.0671 17.5 24C17.4977 23.933 17.491 23.8662 17.48 23.8C17.4689 23.7374 17.4487 23.6768 17.42 23.62ZM15.21 7.29C15.0694 7.15124 14.8908 7.05725 14.6968 7.01987C14.5028 6.9825 14.3021 7.00342 14.12 7.08C13.9976 7.12823 13.8855 7.19952 13.79 7.29C13.6017 7.4783 13.4959 7.7337 13.4959 8C13.4959 8.2663 13.6017 8.5217 13.79 8.71C13.9783 8.8983 14.2337 9.00409 14.5 9.00409C14.7663 9.00409 15.0217 8.8983 15.21 8.71C15.25 8.66 15.29 8.61 15.33 8.55C15.3697 8.49903 15.4002 8.44149 15.42 8.38C15.4487 8.32325 15.4689 8.2626 15.48 8.2C15.4915 8.13391 15.4982 8.06706 15.5 8C15.4961 7.73527 15.3926 7.48174 15.21 7.29Z" fill="#F46B5B"/>
<path d="M22.5 4H10.5C10.2348 4 9.98043 4.10536 9.79289 4.29289C9.60536 4.48043 9.5 4.73478 9.5 5V27C9.5 27.2652 9.60536 27.5196 9.79289 27.7071C9.98043 27.8946 10.2348 28 10.5 28H22.5C22.7652 28 23.0196 27.8946 23.2071 27.7071C23.3946 27.5196 23.5 27.2652 23.5 27V5C23.5 4.73478 23.3946 4.48043 23.2071 4.29289C23.0196 4.10536 22.7652 4 22.5 4ZM11.5 6H21.5V20H11.5V6ZM11.5 26V22H21.5V26H11.5Z" fill="#383838"/>
</svg>
