<svg width="33" height="32" viewBox="0 0 33 32" fill="none" xmlns="http://www.w3.org/2000/svg">
<path d="M21.5 20H20.5C20.2348 20 19.9804 20.1054 19.7929 20.2929C19.6054 20.4804 19.5 20.7348 19.5 21C19.5 21.2652 19.6054 21.5196 19.7929 21.7071C19.9804 21.8946 20.2348 22 20.5 22H21.5C21.7652 22 22.0196 21.8946 22.2071 21.7071C22.3946 21.5196 22.5 21.2652 22.5 21C22.5 20.7348 22.3946 20.4804 22.2071 20.2929C22.0196 20.1054 21.7652 20 21.5 20ZM21.5 23H20.5C20.2348 23 19.9804 23.1054 19.7929 23.2929C19.6054 23.4804 19.5 23.7348 19.5 24C19.5 24.2652 19.6054 24.5196 19.7929 24.7071C19.9804 24.8946 20.2348 25 20.5 25H21.5C21.7652 25 22.0196 24.8946 22.2071 24.7071C22.3946 24.5196 22.5 24.2652 22.5 24C22.5 23.7348 22.3946 23.4804 22.2071 23.2929C22.0196 23.1054 21.7652 23 21.5 23ZM21.5 17H20.5C20.2348 17 19.9804 17.1054 19.7929 17.2929C19.6054 17.4804 19.5 17.7348 19.5 18C19.5 18.2652 19.6054 18.5196 19.7929 18.7071C19.9804 18.8946 20.2348 19 20.5 19H21.5C21.7652 19 22.0196 18.8946 22.2071 18.7071C22.3946 18.5196 22.5 18.2652 22.5 18C22.5 17.7348 22.3946 17.4804 22.2071 17.2929C22.0196 17.1054 21.7652 17 21.5 17ZM25.5 20H24.5C24.2348 20 23.9804 20.1054 23.7929 20.2929C23.6054 20.4804 23.5 20.7348 23.5 21C23.5 21.2652 23.6054 21.5196 23.7929 21.7071C23.9804 21.8946 24.2348 22 24.5 22H25.5C25.7652 22 26.0196 21.8946 26.2071 21.7071C26.3946 21.5196 26.5 21.2652 26.5 21C26.5 20.7348 26.3946 20.4804 26.2071 20.2929C26.0196 20.1054 25.7652 20 25.5 20ZM25.5 23H24.5C24.2348 23 23.9804 23.1054 23.7929 23.2929C23.6054 23.4804 23.5 23.7348 23.5 24C23.5 24.2652 23.6054 24.5196 23.7929 24.7071C23.9804 24.8946 24.2348 25 24.5 25H25.5C25.7652 25 26.0196 24.8946 26.2071 24.7071C26.3946 24.5196 26.5 24.2652 26.5 24C26.5 23.7348 26.3946 23.4804 26.2071 23.2929C26.0196 23.1054 25.7652 23 25.5 23ZM23.5 18C23.5 18.2652 23.6054 18.5196 23.7929 18.7071C23.9804 18.8946 24.2348 19 24.5 19H25.5C25.7652 19 26.0196 18.8946 26.2071 18.7071C26.3946 18.5196 26.5 18.2652 26.5 18C26.5 17.7348 26.3946 17.4804 26.2071 17.2929C26.0196 17.1054 25.7652 17 25.5 17H24.5C24.2348 17 23.9804 17.1054 23.7929 17.2929C23.6054 17.4804 23.5 17.7348 23.5 18ZM16.5 21H12.5C12.2348 21 11.9804 21.1054 11.7929 21.2929C11.6054 21.4804 11.5 21.7348 11.5 22C11.5 22.2652 11.6054 22.5196 11.7929 22.7071C11.9804 22.8946 12.2348 23 12.5 23H16.5C16.7652 23 17.0196 22.8946 17.2071 22.7071C17.3946 22.5196 17.5 22.2652 17.5 22C17.5 21.7348 17.3946 21.4804 17.2071 21.2929C17.0196 21.1054 16.7652 21 16.5 21ZM9.5 21H8.5C8.23478 21 7.98043 21.1054 7.79289 21.2929C7.60536 21.4804 7.5 21.7348 7.5 22C7.5 22.2652 7.60536 22.5196 7.79289 22.7071C7.98043 22.8946 8.23478 23 8.5 23H9.5C9.76522 23 10.0196 22.8946 10.2071 22.7071C10.3946 22.5196 10.5 22.2652 10.5 22C10.5 21.7348 10.3946 21.4804 10.2071 21.2929C10.0196 21.1054 9.76522 21 9.5 21ZM24.5 16C24.5 15.7348 24.3946 15.4804 24.2071 15.2929C24.0196 15.1054 23.7652 15 23.5 15H22.5C22.2348 15 21.9804 15.1054 21.7929 15.2929C21.6054 15.4804 21.5 15.7348 21.5 16C21.5 16.2652 21.6054 16.5196 21.7929 16.7071C21.9804 16.8946 22.2348 17 22.5 17H23.5C23.7652 17 24.0196 16.8946 24.2071 16.7071C24.3946 16.5196 24.5 16.2652 24.5 16Z" fill="#F46B5B"/>
<path d="M27.5 4H5.5C5.23478 4 4.98043 4.10536 4.79289 4.29289C4.60536 4.48043 4.5 4.73478 4.5 5V26C4.5 26.2652 4.60536 26.5196 4.79289 26.7071C4.98043 26.8946 5.23478 27 5.5 27H27.5C27.7652 27 28.0196 26.8946 28.2071 26.7071C28.3946 26.5196 28.5 26.2652 28.5 26V5C28.5 4.73478 28.3946 4.48043 28.2071 4.29289C28.0196 4.10536 27.7652 4 27.5 4ZM6.5 6H26.5V12H19.5C19.2348 12 18.9804 12.1054 18.7929 12.2929C18.6054 12.4804 18.5 12.7348 18.5 13V18H6.5V6ZM6.5 20H18.5V25H6.5V20ZM26.5 25H20.5V14H26.5V25Z" fill="#383838"/>
</svg>
